<svg width="214" height="59" viewBox="0 0 214 59" fill="none" xmlns="http://www.w3.org/2000/svg">
<path d="M94.806 8.77419C94.806 8.77419 95.1133 10.9865 96.0482 11.9204C96.9831 12.8544 99.1976 13.1613 99.1976 13.1613C99.1976 13.1613 96.9831 13.4682 96.0482 14.4022C95.1133 15.3361 94.806 17.5484 94.806 17.5484C94.806 17.5484 94.4987 15.3361 93.5638 14.4022C92.6289 13.4682 90.4144 13.1613 90.4144 13.1613C90.4144 13.1613 92.6289 12.8544 93.5638 11.9204C94.4987 10.9865 94.806 8.77419 94.806 8.77419Z" fill="white"/>
<path fill-rule="evenodd" clip-rule="evenodd" d="M94.806 26.3226C102.082 26.3226 107.981 20.4301 107.981 13.1613C107.981 5.89251 102.082 0 94.806 0C87.5297 0 81.6313 5.89251 81.6313 13.1613C81.6313 20.4301 87.5297 26.3226 94.806 26.3226ZM94.806 23.2258C100.37 23.2258 104.881 18.7198 104.881 13.1613C104.881 7.60282 100.37 3.09677 94.806 3.09677C89.2419 3.09677 84.7312 7.60282 84.7312 13.1613C84.7312 18.7198 89.2419 23.2258 94.806 23.2258Z" fill="white"/>
<path d="M142.855 8.77419C142.855 8.77419 143.162 10.9865 144.097 11.9204C145.032 12.8544 147.246 13.1613 147.246 13.1613C147.246 13.1613 145.032 13.4682 144.097 14.4022C143.162 15.3361 142.855 17.5484 142.855 17.5484C142.855 17.5484 142.548 15.3361 141.613 14.4022C140.678 13.4682 138.463 13.1613 138.463 13.1613C138.463 13.1613 140.678 12.8544 141.613 11.9204C142.548 10.9865 142.855 8.77419 142.855 8.77419Z" fill="white"/>
<path fill-rule="evenodd" clip-rule="evenodd" d="M142.855 26.3226C150.131 26.3226 156.029 20.4301 156.029 13.1613C156.029 5.89251 150.131 0 142.855 0C135.579 0 129.68 5.89251 129.68 13.1613C129.68 20.4301 135.579 26.3226 142.855 26.3226ZM142.855 23.2258C148.419 23.2258 152.93 18.7198 152.93 13.1613C152.93 7.60282 148.419 3.09677 142.855 3.09677C137.291 3.09677 132.78 7.60282 132.78 13.1613C132.78 18.7198 137.291 23.2258 142.855 23.2258Z" fill="white"/>
<path d="M0 0.516129H23.7661C23.7661 2.06452 22.7328 3.6129 21.1828 3.6129H13.433V32H10.3331V3.6129H2.58327C1.03331 3.6129 0 2.06452 0 0.516129Z" fill="white"/>
<path d="M54.7653 3.6129C53.2154 3.6129 52.182 2.06452 52.182 0.516129H67.94C71.9347 0.516129 75.1731 3.75123 75.1731 7.74194C75.1731 11.4349 72.3999 14.4808 68.8204 14.9148L77.4981 25.8065H73.3649L62.2621 11.871H67.94C70.2228 11.871 72.0732 10.0223 72.0732 7.74194C72.0732 5.46154 70.2228 3.6129 67.94 3.6129H54.7653Z" fill="white"/>
<path d="M58.8985 6.70968V25.8065H55.7986V6.70968H58.8985Z" fill="white"/>
<path d="M26.866 25.8065L31.9586 14.9677H39.2657C39.2657 13.4194 38.2324 11.871 36.6824 11.871H33.4137L36.9408 4.36467L47.0155 25.8065H50.6321L38.749 0.516129H33.0659C33.0659 1.41441 33.4137 2.31269 34.0083 2.90864L23.2494 25.8065H26.866Z" fill="white"/>
<path d="M174.371 23.2258C179.318 23.2258 183.432 19.6641 184.283 14.9677H177.212C175.662 14.9677 174.629 13.4194 174.629 11.871H187.483C187.524 12.2955 187.545 12.7259 187.545 13.1613C187.545 20.4301 181.647 26.3226 174.371 26.3226C167.094 26.3226 161.196 20.4301 161.196 13.1613C161.196 5.89251 167.094 0 174.371 0C178.206 0 181.658 1.6371 184.066 4.24997L181.872 6.44216C180.027 4.38861 177.35 3.09677 174.371 3.09677C168.807 3.09677 164.296 7.60282 164.296 13.1613C164.296 18.7198 168.807 23.2258 174.371 23.2258Z" fill="white"/>
<path d="M114.181 0.516129H118.572V22.7097H123.997C125.547 22.7097 126.58 24.2581 126.58 25.8065H115.472V3.20259C114.667 2.64018 114.181 1.57816 114.181 0.516129Z" fill="white"/>
<path d="M199.945 14.6384L189.095 0.516129H194.262C194.262 1.04319 194.142 1.57028 193.923 2.03629L201.495 12.0563L209.067 2.03629C208.848 1.57028 208.728 1.04319 208.728 0.516129H213.895L203.045 14.6384V32H199.945V14.6384Z" fill="white"/>
<path d="M49.7844 44.605V45.865H46.5144V55H45.0594V45.865H41.7894V44.605H49.7844ZM53.5103 47.035C53.6303 47.035 53.7653 47.045 53.9153 47.065C54.0753 47.075 54.2303 47.095 54.3803 47.125C54.5303 47.145 54.6653 47.17 54.7853 47.2C54.9153 47.22 55.0103 47.24 55.0703 47.26L54.8303 48.475C54.7203 48.435 54.5353 48.39 54.2753 48.34C54.0253 48.28 53.7003 48.25 53.3003 48.25C53.0403 48.25 52.7803 48.28 52.5203 48.34C52.2703 48.39 52.1053 48.425 52.0253 48.445V55H50.6303V47.53C50.9603 47.41 51.3703 47.3 51.8603 47.2C52.3503 47.09 52.9003 47.035 53.5103 47.035ZM62.6264 54.775C62.3064 54.855 61.8814 54.94 61.3514 55.03C60.8314 55.12 60.2264 55.165 59.5364 55.165C58.9364 55.165 58.4314 55.08 58.0214 54.91C57.6114 54.73 57.2814 54.48 57.0314 54.16C56.7814 53.84 56.6014 53.465 56.4914 53.035C56.3814 52.595 56.3264 52.11 56.3264 51.58V47.2H57.7214V51.28C57.7214 52.23 57.8714 52.91 58.1714 53.32C58.4714 53.73 58.9764 53.935 59.6864 53.935C59.8364 53.935 59.9914 53.93 60.1514 53.92C60.3114 53.91 60.4614 53.9 60.6014 53.89C60.7414 53.87 60.8664 53.855 60.9764 53.845C61.0964 53.825 61.1814 53.805 61.2314 53.785V47.2H62.6264V54.775ZM66.8447 53.995C67.4147 53.995 67.8347 53.92 68.1047 53.77C68.3847 53.62 68.5247 53.38 68.5247 53.05C68.5247 52.71 68.3897 52.44 68.1197 52.24C67.8497 52.04 67.4047 51.815 66.7847 51.565C66.4847 51.445 66.1947 51.325 65.9147 51.205C65.6447 51.075 65.4097 50.925 65.2097 50.755C65.0097 50.585 64.8497 50.38 64.7297 50.14C64.6097 49.9 64.5497 49.605 64.5497 49.255C64.5497 48.565 64.8047 48.02 65.3147 47.62C65.8247 47.21 66.5197 47.005 67.3997 47.005C67.6197 47.005 67.8397 47.02 68.0597 47.05C68.2797 47.07 68.4847 47.1 68.6747 47.14C68.8647 47.17 69.0297 47.205 69.1697 47.245C69.3197 47.285 69.4347 47.32 69.5147 47.35L69.2597 48.55C69.1097 48.47 68.8747 48.39 68.5547 48.31C68.2347 48.22 67.8497 48.175 67.3997 48.175C67.0097 48.175 66.6697 48.255 66.3797 48.415C66.0897 48.565 65.9447 48.805 65.9447 49.135C65.9447 49.305 65.9747 49.455 66.0347 49.585C66.1047 49.715 66.2047 49.835 66.3347 49.945C66.4747 50.045 66.6447 50.14 66.8447 50.23C67.0447 50.32 67.2847 50.415 67.5647 50.515C67.9347 50.655 68.2647 50.795 68.5547 50.935C68.8447 51.065 69.0897 51.22 69.2897 51.4C69.4997 51.58 69.6597 51.8 69.7697 52.06C69.8797 52.31 69.9347 52.62 69.9347 52.99C69.9347 53.71 69.6647 54.255 69.1247 54.625C68.5947 54.995 67.8347 55.18 66.8447 55.18C66.1547 55.18 65.6147 55.12 65.2247 55C64.8347 54.89 64.5697 54.805 64.4297 54.745L64.6847 53.545C64.8447 53.605 65.0997 53.695 65.4497 53.815C65.7997 53.935 66.2647 53.995 66.8447 53.995ZM73.029 47.2H75.984V48.37H73.029V51.97C73.029 52.36 73.059 52.685 73.119 52.945C73.179 53.195 73.269 53.395 73.389 53.545C73.509 53.685 73.659 53.785 73.839 53.845C74.019 53.905 74.229 53.935 74.469 53.935C74.889 53.935 75.224 53.89 75.474 53.8C75.734 53.7 75.914 53.63 76.014 53.59L76.284 54.745C76.144 54.815 75.899 54.9 75.549 55C75.199 55.11 74.799 55.165 74.349 55.165C73.819 55.165 73.379 55.1 73.029 54.97C72.689 54.83 72.414 54.625 72.204 54.355C71.994 54.085 71.844 53.755 71.754 53.365C71.674 52.965 71.634 52.505 71.634 51.985V45.025L73.029 44.785V47.2ZM80.3159 56.455C80.4259 56.505 80.5659 56.55 80.7359 56.59C80.9159 56.64 81.0909 56.665 81.2609 56.665C81.8109 56.665 82.2409 56.54 82.5509 56.29C82.8609 56.05 83.1409 55.655 83.3909 55.105C82.7609 53.905 82.1709 52.635 81.6209 51.295C81.0809 49.945 80.6309 48.58 80.2709 47.2H81.7709C81.8809 47.65 82.0109 48.135 82.1609 48.655C82.3209 49.175 82.4959 49.71 82.6859 50.26C82.8759 50.81 83.0809 51.36 83.3009 51.91C83.5209 52.46 83.7509 52.99 83.9909 53.5C84.3709 52.45 84.7009 51.41 84.9809 50.38C85.2609 49.35 85.5259 48.29 85.7759 47.2H87.2159C86.8559 48.67 86.4559 50.085 86.0159 51.445C85.5759 52.795 85.1009 54.06 84.5909 55.24C84.3909 55.69 84.1809 56.075 83.9609 56.395C83.7509 56.725 83.5159 56.995 83.2559 57.205C82.9959 57.415 82.7009 57.57 82.3709 57.67C82.0509 57.77 81.6859 57.82 81.2759 57.82C81.1659 57.82 81.0509 57.81 80.9309 57.79C80.8109 57.78 80.6909 57.76 80.5709 57.73C80.4609 57.71 80.3559 57.685 80.2559 57.655C80.1659 57.625 80.1009 57.6 80.0609 57.58L80.3159 56.455ZM95.5719 51.1C95.5719 51.72 95.4819 52.28 95.3019 52.78C95.1219 53.28 94.8669 53.71 94.5369 54.07C94.2169 54.43 93.8319 54.71 93.3819 54.91C92.9319 55.1 92.4419 55.195 91.9119 55.195C91.3819 55.195 90.8919 55.1 90.4419 54.91C89.9919 54.71 89.6019 54.43 89.2719 54.07C88.9519 53.71 88.7019 53.28 88.5219 52.78C88.3419 52.28 88.2519 51.72 88.2519 51.1C88.2519 50.49 88.3419 49.935 88.5219 49.435C88.7019 48.925 88.9519 48.49 89.2719 48.13C89.6019 47.77 89.9919 47.495 90.4419 47.305C90.8919 47.105 91.3819 47.005 91.9119 47.005C92.4419 47.005 92.9319 47.105 93.3819 47.305C93.8319 47.495 94.2169 47.77 94.5369 48.13C94.8669 48.49 95.1219 48.925 95.3019 49.435C95.4819 49.935 95.5719 50.49 95.5719 51.1ZM94.1169 51.1C94.1169 50.22 93.9169 49.525 93.5169 49.015C93.1269 48.495 92.5919 48.235 91.9119 48.235C91.2319 48.235 90.6919 48.495 90.2919 49.015C89.9019 49.525 89.7069 50.22 89.7069 51.1C89.7069 51.98 89.9019 52.68 90.2919 53.2C90.6919 53.71 91.2319 53.965 91.9119 53.965C92.5919 53.965 93.1269 53.71 93.5169 53.2C93.9169 52.68 94.1169 51.98 94.1169 51.1ZM103.745 54.775C103.425 54.855 103 54.94 102.47 55.03C101.95 55.12 101.345 55.165 100.655 55.165C100.055 55.165 99.5496 55.08 99.1396 54.91C98.7296 54.73 98.3996 54.48 98.1496 54.16C97.8996 53.84 97.7196 53.465 97.6096 53.035C97.4996 52.595 97.4446 52.11 97.4446 51.58V47.2H98.8396V51.28C98.8396 52.23 98.9896 52.91 99.2896 53.32C99.5896 53.73 100.095 53.935 100.805 53.935C100.955 53.935 101.11 53.93 101.27 53.92C101.43 53.91 101.58 53.9 101.72 53.89C101.86 53.87 101.985 53.855 102.095 53.845C102.215 53.825 102.3 53.805 102.35 53.785V47.2H103.745V54.775ZM109.028 47.035C109.148 47.035 109.283 47.045 109.433 47.065C109.593 47.075 109.748 47.095 109.898 47.125C110.048 47.145 110.183 47.17 110.303 47.2C110.433 47.22 110.528 47.24 110.588 47.26L110.348 48.475C110.238 48.435 110.053 48.39 109.793 48.34C109.543 48.28 109.218 48.25 108.818 48.25C108.558 48.25 108.298 48.28 108.038 48.34C107.788 48.39 107.623 48.425 107.543 48.445V55H106.148V47.53C106.478 47.41 106.888 47.3 107.378 47.2C107.868 47.09 108.418 47.035 109.028 47.035ZM116.801 55H115.406V47.2H116.801V55ZM116.096 45.79C115.846 45.79 115.631 45.71 115.451 45.55C115.281 45.38 115.196 45.155 115.196 44.875C115.196 44.595 115.281 44.375 115.451 44.215C115.631 44.045 115.846 43.96 116.096 43.96C116.346 43.96 116.556 44.045 116.726 44.215C116.906 44.375 116.996 44.595 116.996 44.875C116.996 45.155 116.906 45.38 116.726 45.55C116.556 45.71 116.346 45.79 116.096 45.79ZM119.2 47.425C119.52 47.345 119.945 47.26 120.475 47.17C121.005 47.08 121.615 47.035 122.305 47.035C122.925 47.035 123.44 47.125 123.85 47.305C124.26 47.475 124.585 47.72 124.825 48.04C125.075 48.35 125.25 48.725 125.35 49.165C125.45 49.605 125.5 50.09 125.5 50.62V55H124.105V50.92C124.105 50.44 124.07 50.03 124 49.69C123.94 49.35 123.835 49.075 123.685 48.865C123.535 48.655 123.335 48.505 123.085 48.415C122.835 48.315 122.525 48.265 122.155 48.265C122.005 48.265 121.85 48.27 121.69 48.28C121.53 48.29 121.375 48.305 121.225 48.325C121.085 48.335 120.955 48.35 120.835 48.37C120.725 48.39 120.645 48.405 120.595 48.415V55H119.2V47.425ZM129.118 47.2H132.073V48.37H129.118V51.97C129.118 52.36 129.148 52.685 129.208 52.945C129.268 53.195 129.358 53.395 129.478 53.545C129.598 53.685 129.748 53.785 129.928 53.845C130.108 53.905 130.318 53.935 130.558 53.935C130.978 53.935 131.313 53.89 131.563 53.8C131.823 53.7 132.003 53.63 132.103 53.59L132.373 54.745C132.233 54.815 131.988 54.9 131.638 55C131.288 55.11 130.888 55.165 130.438 55.165C129.908 55.165 129.468 55.1 129.118 54.97C128.778 54.83 128.503 54.625 128.293 54.355C128.083 54.085 127.933 53.755 127.843 53.365C127.763 52.965 127.723 52.505 127.723 51.985V45.025L129.118 44.785V47.2ZM140.058 54.775C139.738 54.855 139.313 54.94 138.783 55.03C138.263 55.12 137.658 55.165 136.968 55.165C136.368 55.165 135.863 55.08 135.453 54.91C135.043 54.73 134.713 54.48 134.463 54.16C134.213 53.84 134.033 53.465 133.923 53.035C133.813 52.595 133.758 52.11 133.758 51.58V47.2H135.153V51.28C135.153 52.23 135.303 52.91 135.603 53.32C135.903 53.73 136.408 53.935 137.118 53.935C137.268 53.935 137.423 53.93 137.583 53.92C137.743 53.91 137.893 53.9 138.033 53.89C138.173 53.87 138.298 53.855 138.408 53.845C138.528 53.825 138.613 53.805 138.663 53.785V47.2H140.058V54.775ZM143.856 55H142.461V47.2H143.856V55ZM143.151 45.79C142.901 45.79 142.686 45.71 142.506 45.55C142.336 45.38 142.251 45.155 142.251 44.875C142.251 44.595 142.336 44.375 142.506 44.215C142.686 44.045 142.901 43.96 143.151 43.96C143.401 43.96 143.611 44.045 143.781 44.215C143.961 44.375 144.051 44.595 144.051 44.875C144.051 45.155 143.961 45.38 143.781 45.55C143.611 45.71 143.401 45.79 143.151 45.79ZM147.56 47.2H150.515V48.37H147.56V51.97C147.56 52.36 147.59 52.685 147.65 52.945C147.71 53.195 147.8 53.395 147.92 53.545C148.04 53.685 148.19 53.785 148.37 53.845C148.55 53.905 148.76 53.935 149 53.935C149.42 53.935 149.755 53.89 150.005 53.8C150.265 53.7 150.445 53.63 150.545 53.59L150.815 54.745C150.675 54.815 150.43 54.9 150.08 55C149.73 55.11 149.33 55.165 148.88 55.165C148.35 55.165 147.91 55.1 147.56 54.97C147.22 54.83 146.945 54.625 146.735 54.355C146.525 54.085 146.375 53.755 146.285 53.365C146.205 52.965 146.165 52.505 146.165 51.985V45.025L147.56 44.785V47.2ZM153.685 55H152.29V47.2H153.685V55ZM152.98 45.79C152.73 45.79 152.515 45.71 152.335 45.55C152.165 45.38 152.08 45.155 152.08 44.875C152.08 44.595 152.165 44.375 152.335 44.215C152.515 44.045 152.73 43.96 152.98 43.96C153.23 43.96 153.44 44.045 153.61 44.215C153.79 44.375 153.88 44.595 153.88 44.875C153.88 45.155 153.79 45.38 153.61 45.55C153.44 45.71 153.23 45.79 152.98 45.79ZM162.969 51.1C162.969 51.72 162.879 52.28 162.699 52.78C162.519 53.28 162.264 53.71 161.934 54.07C161.614 54.43 161.229 54.71 160.779 54.91C160.329 55.1 159.839 55.195 159.309 55.195C158.779 55.195 158.289 55.1 157.839 54.91C157.389 54.71 156.999 54.43 156.669 54.07C156.349 53.71 156.099 53.28 155.919 52.78C155.739 52.28 155.649 51.72 155.649 51.1C155.649 50.49 155.739 49.935 155.919 49.435C156.099 48.925 156.349 48.49 156.669 48.13C156.999 47.77 157.389 47.495 157.839 47.305C158.289 47.105 158.779 47.005 159.309 47.005C159.839 47.005 160.329 47.105 160.779 47.305C161.229 47.495 161.614 47.77 161.934 48.13C162.264 48.49 162.519 48.925 162.699 49.435C162.879 49.935 162.969 50.49 162.969 51.1ZM161.514 51.1C161.514 50.22 161.314 49.525 160.914 49.015C160.524 48.495 159.989 48.235 159.309 48.235C158.629 48.235 158.089 48.495 157.689 49.015C157.299 49.525 157.104 50.22 157.104 51.1C157.104 51.98 157.299 52.68 157.689 53.2C158.089 53.71 158.629 53.965 159.309 53.965C159.989 53.965 160.524 53.71 160.914 53.2C161.314 52.68 161.514 51.98 161.514 51.1ZM164.932 47.425C165.252 47.345 165.677 47.26 166.207 47.17C166.737 47.08 167.347 47.035 168.037 47.035C168.657 47.035 169.172 47.125 169.582 47.305C169.992 47.475 170.317 47.72 170.557 48.04C170.807 48.35 170.982 48.725 171.082 49.165C171.182 49.605 171.232 50.09 171.232 50.62V55H169.837V50.92C169.837 50.44 169.802 50.03 169.732 49.69C169.672 49.35 169.567 49.075 169.417 48.865C169.267 48.655 169.067 48.505 168.817 48.415C168.567 48.315 168.257 48.265 167.887 48.265C167.737 48.265 167.582 48.27 167.422 48.28C167.262 48.29 167.107 48.305 166.957 48.325C166.817 48.335 166.687 48.35 166.567 48.37C166.457 48.39 166.377 48.405 166.327 48.415V55H164.932V47.425Z" fill="white"/>
</svg>
