<svg width="127" height="33" viewBox="0 0 127 33" fill="none" xmlns="http://www.w3.org/2000/svg">
<path d="M20.2714 15.8611C20.2854 14.772 20.5747 13.704 21.1124 12.7568C21.65 11.8095 22.4186 11.0135 23.3465 10.4431C22.757 9.60121 21.9794 8.90839 21.0753 8.41964C20.1712 7.93088 19.1656 7.65967 18.1384 7.62753C15.9472 7.39752 13.8229 8.93873 12.7062 8.93873C11.568 8.93873 9.8488 7.65037 7.99749 7.68845C6.80002 7.72714 5.63299 8.07536 4.6101 8.69918C3.58722 9.32299 2.74338 10.2011 2.16078 11.248C-0.362834 15.6174 1.51956 22.0389 3.93701 25.5707C5.14653 27.3002 6.56009 29.232 8.40973 29.1635C10.2197 29.0885 10.8957 28.0094 13.0805 28.0094C15.245 28.0094 15.8792 29.1635 17.7664 29.12C19.7086 29.0885 20.9322 27.3828 22.0993 25.637C22.9684 24.4047 23.6371 23.0428 24.0807 21.6016C22.9524 21.1244 21.9894 20.3255 21.312 19.3047C20.6346 18.2839 20.2727 17.0862 20.2714 15.8611Z" fill="black"/>
<path d="M16.7069 5.30474C17.7658 4.03349 18.2876 2.39952 18.1612 0.749817C16.5434 0.91974 15.0489 1.69297 13.9757 2.91544C13.4509 3.51265 13.049 4.20742 12.7929 4.96005C12.5368 5.71268 12.4316 6.5084 12.4832 7.30172C13.2924 7.31005 14.093 7.13465 14.8246 6.78874C15.5562 6.44283 16.1998 5.93542 16.7069 5.30474Z" fill="black"/>
<path d="M41.9865 24.959H36.0468L34.6204 29.1708H32.1046L37.7305 13.5883H40.3444L45.9703 29.1708H43.4116L41.9865 24.959ZM36.662 23.0155H41.3701L39.0492 16.1801H38.9842L36.662 23.0155Z" fill="black"/>
<path d="M58.1204 23.491C58.1204 27.0214 56.2308 29.2897 53.3792 29.2897C52.6569 29.3275 51.9385 29.1611 51.3063 28.8095C50.6741 28.458 50.1537 27.9356 49.8046 27.302H49.7507V32.9292H47.4187V17.8099H49.6759V19.6995H49.7188C50.0839 19.069 50.6131 18.5492 51.2501 18.1956C51.8871 17.8419 52.6081 17.6675 53.3363 17.691C56.2197 17.691 58.1204 19.9703 58.1204 23.491ZM55.7234 23.491C55.7234 21.1908 54.5348 19.6787 52.7211 19.6787C50.9394 19.6787 49.7409 21.2227 49.7409 23.491C49.7409 25.7801 50.9394 27.3131 52.7211 27.3131C54.5348 27.3131 55.7234 25.8119 55.7234 23.491Z" fill="black"/>
<path d="M70.6251 23.491C70.6251 27.0214 68.7349 29.2897 65.8834 29.2897C65.161 29.3275 64.4426 29.1611 63.8104 28.8095C63.1783 28.458 62.6578 27.9356 62.3088 27.302H62.2548V32.9292H59.9229V17.8099H62.1801V19.6995H62.223C62.5881 19.069 63.1173 18.5492 63.7543 18.1956C64.3913 17.8419 65.1122 17.6675 65.8404 17.691C68.7239 17.691 70.6251 19.9703 70.6251 23.491ZM68.2276 23.491C68.2276 21.1908 67.0389 19.6787 65.2253 19.6787C63.4435 19.6787 62.2451 21.2227 62.2451 23.491C62.2451 25.7801 63.4435 27.3131 65.2253 27.3131C67.0389 27.3131 68.2276 25.8119 68.2276 23.491Z" fill="black"/>
<path d="M78.8883 24.8291C79.0611 26.3744 80.5622 27.389 82.6136 27.389C84.5792 27.389 85.9933 26.3743 85.9933 24.981C85.9933 23.7715 85.1404 23.0473 83.1209 22.551L81.1014 22.0645C78.24 21.3734 76.9117 20.0352 76.9117 17.8637C76.9117 15.1751 79.2547 13.3284 82.5805 13.3284C85.8745 13.3284 88.1317 15.1751 88.2077 17.8637H85.8536C85.7127 16.3087 84.4272 15.37 82.5486 15.37C80.67 15.37 79.3846 16.3197 79.3846 17.702C79.3846 18.8036 80.2056 19.4519 82.2141 19.9481L83.9309 20.3697C87.128 21.1258 88.4552 22.4101 88.4552 24.6893C88.4552 27.6046 86.1342 29.4305 82.4407 29.4305C78.985 29.4305 76.6518 27.6475 76.5011 24.829L78.8883 24.8291Z" fill="black"/>
<path d="M93.4904 15.1213V17.8099H95.6508V19.6566H93.4904V25.9197C93.4904 26.8927 93.9229 27.3461 94.8726 27.3461C95.1291 27.3417 95.3852 27.3237 95.6398 27.2922V29.1279C95.2128 29.2077 94.7788 29.2438 94.3445 29.2357C92.0444 29.2357 91.1473 28.3718 91.1473 26.1685V19.6566H89.4955V17.8099H91.1473V15.1213H93.4904Z" fill="black"/>
<path d="M96.9009 23.491C96.9009 19.9164 99.0061 17.6702 102.289 17.6702C105.583 17.6702 107.679 19.9164 107.679 23.491C107.679 27.0754 105.594 29.3118 102.289 29.3118C98.9853 29.3118 96.9009 27.0753 96.9009 23.491ZM105.302 23.491C105.302 21.0389 104.179 19.5917 102.289 19.5917C100.399 19.5917 99.2757 21.0499 99.2757 23.491C99.2757 25.9529 100.399 27.3891 102.289 27.3891C104.179 27.3891 105.302 25.9529 105.302 23.491Z" fill="black"/>
<path d="M109.601 17.8099H111.825V19.7436H111.879C112.03 19.1397 112.384 18.6059 112.881 18.2321C113.379 17.8584 113.99 17.6673 114.612 17.691C114.881 17.6901 115.149 17.7193 115.411 17.778V19.9593C115.072 19.8556 114.718 19.808 114.363 19.8184C114.024 19.8046 113.687 19.8644 113.373 19.9935C113.06 20.1226 112.778 20.318 112.547 20.5663C112.316 20.8146 112.142 21.11 112.036 21.432C111.93 21.7541 111.895 22.0953 111.933 22.4322V29.1708H109.601L109.601 17.8099Z" fill="black"/>
<path d="M126.163 25.834C125.849 27.8964 123.841 29.3117 121.271 29.3117C117.966 29.3117 115.915 27.0974 115.915 23.5449C115.915 19.9813 117.977 17.6702 121.173 17.6702C124.316 17.6702 126.293 19.8294 126.293 23.2741V24.073H118.269V24.214C118.232 24.6321 118.284 25.0533 118.422 25.4496C118.56 25.8459 118.781 26.2083 119.07 26.5127C119.36 26.817 119.71 27.0564 120.099 27.2149C120.487 27.3734 120.905 27.4474 121.325 27.4319C121.876 27.4836 122.429 27.3559 122.902 27.068C123.374 26.7801 123.741 26.3473 123.948 25.834L126.163 25.834ZM118.28 22.4432H123.959C123.98 22.0673 123.923 21.6911 123.792 21.3382C123.661 20.9853 123.458 20.6634 123.196 20.3926C122.935 20.1219 122.62 19.9082 122.272 19.7648C121.923 19.6215 121.549 19.5517 121.173 19.5598C120.793 19.5575 120.417 19.6305 120.065 19.7745C119.714 19.9185 119.394 20.1306 119.125 20.3987C118.856 20.6668 118.643 20.9854 118.498 21.3364C118.353 21.6873 118.279 22.0635 118.28 22.4432Z" fill="black"/>
<path d="M36.3704 1.8592C36.8593 1.82411 37.3499 1.89797 37.8068 2.07545C38.2637 2.25292 38.6755 2.52959 39.0126 2.88549C39.3496 3.2414 39.6034 3.66766 39.7558 4.13355C39.9081 4.59943 39.9551 5.09332 39.8935 5.57959C39.8935 7.97162 38.6007 9.3466 36.3704 9.3466H33.6659V1.8592H36.3704ZM34.8288 8.28772H36.2405C36.5899 8.30861 36.9395 8.25133 37.2639 8.12005C37.5883 7.98878 37.8794 7.78681 38.1159 7.52886C38.3524 7.27091 38.5285 6.96347 38.6312 6.6289C38.7339 6.29434 38.7608 5.94108 38.7097 5.59485C38.7571 5.24997 38.7275 4.89891 38.6232 4.5668C38.5189 4.23469 38.3424 3.92976 38.1064 3.67386C37.8705 3.41796 37.5808 3.21743 37.2582 3.08663C36.9356 2.95583 36.5881 2.898 36.2405 2.91729H34.8288V8.28772Z" fill="black"/>
<path d="M41.2072 6.51883C41.1717 6.1475 41.2141 5.77285 41.3319 5.4189C41.4497 5.06495 41.6401 4.73952 41.891 4.46347C42.1419 4.18743 42.4477 3.96687 42.7888 3.81595C43.1299 3.66502 43.4989 3.58706 43.8719 3.58706C44.2449 3.58706 44.6138 3.66502 44.9549 3.81595C45.2961 3.96687 45.6019 4.18743 45.8528 4.46347C46.1037 4.73952 46.2941 5.06495 46.4119 5.4189C46.5296 5.77285 46.5721 6.1475 46.5366 6.51883C46.5728 6.89054 46.5308 7.26571 46.4133 7.62024C46.2959 7.97476 46.1056 8.30079 45.8546 8.57737C45.6037 8.85396 45.2976 9.07498 44.9562 9.22623C44.6147 9.37748 44.2453 9.45562 43.8719 9.45562C43.4984 9.45562 43.1291 9.37748 42.7876 9.22623C42.4461 9.07498 42.1401 8.85396 41.8891 8.57737C41.6382 8.30079 41.4478 7.97476 41.3304 7.62024C41.213 7.26571 41.171 6.89054 41.2072 6.51883ZM45.3896 6.51883C45.3896 5.29402 44.8393 4.57776 43.8737 4.57776C42.9044 4.57776 42.3591 5.29402 42.3591 6.51884C42.3591 7.75347 42.9044 8.46421 43.8737 8.46421C44.8394 8.46419 45.3896 7.74855 45.3896 6.51883Z" fill="black"/>
<path d="M53.6208 9.34649H52.464L51.2961 5.18494H51.2079L50.045 9.34649H48.8992L47.3417 3.69605H48.4727L49.4849 8.00767H49.5683L50.73 3.69605H51.7998L52.9615 8.00767H53.0497L54.057 3.69605H55.1721L53.6208 9.34649Z" fill="black"/>
<path d="M56.4821 3.69605H57.5555V4.59367H57.6389C57.7802 4.27127 58.0186 4.00102 58.3209 3.82057C58.6232 3.64011 58.9742 3.55845 59.325 3.58698C59.6 3.5663 59.876 3.60776 60.1328 3.70827C60.3895 3.80877 60.6204 3.96576 60.8082 4.16759C60.996 4.36942 61.136 4.61093 61.2178 4.87422C61.2997 5.13751 61.3212 5.41584 61.2808 5.68858V9.34642H60.1657V5.96861C60.1657 5.06057 59.7711 4.60899 58.9464 4.60899C58.7597 4.6003 58.5734 4.63207 58.4001 4.70212C58.2269 4.77218 58.0709 4.87887 57.9427 5.01488C57.8146 5.15088 57.7173 5.31299 57.6577 5.49008C57.5981 5.66718 57.5774 5.85508 57.5972 6.0409V9.34649H56.4821L56.4821 3.69605Z" fill="black"/>
<path d="M63.0577 1.49027H64.1729V9.34648H63.0577V1.49027Z" fill="black"/>
<path d="M65.723 6.51883C65.6875 6.14748 65.73 5.7728 65.8478 5.41884C65.9656 5.06487 66.1561 4.73943 66.407 4.46338C66.6579 4.18733 66.9637 3.96677 67.3049 3.81584C67.646 3.66492 68.015 3.58695 68.388 3.58695C68.7611 3.58695 69.13 3.66492 69.4712 3.81584C69.8123 3.96677 70.1181 4.18733 70.3691 4.46338C70.62 4.73943 70.8104 5.06487 70.9282 5.41884C71.046 5.7728 71.0885 6.14748 71.053 6.51883C71.0892 6.89055 71.0472 7.26573 70.9297 7.62025C70.8122 7.97477 70.6218 8.3008 70.3709 8.57737C70.1199 8.85395 69.8138 9.07496 69.4723 9.2262C69.1308 9.37745 68.7615 9.45558 68.388 9.45558C68.0145 9.45558 67.6452 9.37745 67.3037 9.2262C66.9622 9.07496 66.6562 8.85395 66.4052 8.57737C66.1542 8.3008 65.9638 7.97477 65.8464 7.62025C65.7289 7.26573 65.6869 6.89055 65.723 6.51883ZM69.9054 6.51883C69.9054 5.29402 69.3552 4.57776 68.3896 4.57776C67.4202 4.57776 66.875 5.29402 66.875 6.51884C66.875 7.75346 67.4203 8.4642 68.3896 8.4642C69.3552 8.46419 69.9054 7.74854 69.9054 6.51883Z" fill="black"/>
<path d="M72.2271 7.74855C72.2271 6.73144 72.9844 6.14508 74.3286 6.06174L75.8592 5.97352V5.4858C75.8592 4.88901 75.4646 4.55203 74.7024 4.55203C74.0799 4.55203 73.6486 4.78057 73.5248 5.18006H72.4452C72.5591 4.20952 73.4721 3.58701 74.7539 3.58701C76.1705 3.58701 76.9694 4.29222 76.9694 5.4858V9.3465H75.896V8.55243H75.8077C75.6287 8.83727 75.3772 9.06948 75.079 9.22534C74.7808 9.3812 74.4466 9.45514 74.1105 9.4396C73.8733 9.46427 73.6336 9.43897 73.4068 9.36531C73.1799 9.29165 72.9711 9.17128 72.7936 9.01196C72.6161 8.85263 72.474 8.65789 72.3765 8.44028C72.2789 8.22267 72.228 7.98703 72.2271 7.74855ZM75.8592 7.26572V6.79333L74.4794 6.88155C73.7012 6.93363 73.3483 7.19832 73.3483 7.69646C73.3483 8.205 73.7895 8.50095 74.3961 8.50095C74.5738 8.51894 74.7534 8.50099 74.924 8.44817C75.0947 8.39536 75.253 8.30875 75.3895 8.1935C75.526 8.07826 75.638 7.93673 75.7186 7.77734C75.7993 7.61796 75.8471 7.44396 75.8592 7.26572Z" fill="black"/>
<path d="M78.4349 6.51883C78.4349 4.73338 79.3528 3.60231 80.7804 3.60231C81.1335 3.58604 81.484 3.67062 81.7908 3.84617C82.0977 4.02171 82.3482 4.28097 82.5132 4.59363H82.5965V1.49027H83.7116V9.34648H82.6431V8.45375H82.5548C82.3771 8.76431 82.1179 9.02034 81.8051 9.19411C81.4923 9.36788 81.138 9.45278 80.7804 9.4396C79.343 9.43966 78.4349 8.30856 78.4349 6.51883ZM79.5869 6.51883C79.5869 7.7173 80.1518 8.43846 81.0966 8.43846C82.0365 8.43846 82.6174 7.70689 82.6174 6.52373C82.6174 5.3461 82.0304 4.6041 81.0966 4.6041C80.1579 4.6041 79.5869 5.33016 79.5869 6.51883Z" fill="black"/>
<path d="M88.3253 6.51883C88.2898 6.1475 88.3323 5.77285 88.4501 5.4189C88.5678 5.06495 88.7582 4.73952 89.0091 4.46347C89.26 4.18743 89.5658 3.96687 89.907 3.81595C90.2481 3.66502 90.617 3.58706 90.99 3.58706C91.3631 3.58706 91.732 3.66502 92.0731 3.81595C92.4142 3.96687 92.72 4.18743 92.9709 4.46347C93.2218 4.73952 93.4123 5.06495 93.53 5.4189C93.6478 5.77285 93.6903 6.1475 93.6547 6.51883C93.6909 6.89054 93.6489 7.26571 93.5315 7.62024C93.4141 7.97476 93.2237 8.30079 92.9728 8.57737C92.7218 8.85396 92.4158 9.07498 92.0743 9.22623C91.7328 9.37748 91.3635 9.45562 90.99 9.45562C90.6166 9.45562 90.2472 9.37748 89.9058 9.22623C89.5643 9.07498 89.2582 8.85396 89.0073 8.57737C88.7563 8.30079 88.566 7.97476 88.4486 7.62024C88.3311 7.26571 88.2892 6.89054 88.3253 6.51883ZM92.5077 6.51883C92.5077 5.29402 91.9575 4.57776 90.9919 4.57776C90.0226 4.57776 89.4773 5.29402 89.4773 6.51884C89.4773 7.75347 90.0226 8.46421 90.9919 8.46421C91.9575 8.46419 92.5077 7.74855 92.5077 6.51883Z" fill="black"/>
<path d="M95.151 3.69605H96.2245V4.59367H96.3078C96.4492 4.27127 96.6876 4.00102 96.9898 3.82057C97.2921 3.64011 97.6431 3.55845 97.994 3.58698C98.2689 3.5663 98.545 3.60776 98.8017 3.70827C99.0585 3.80877 99.2893 3.96576 99.4771 4.16759C99.665 4.36942 99.805 4.61093 99.8868 4.87422C99.9686 5.13751 99.9901 5.41584 99.9498 5.68858V9.34642H98.8346V5.96861C98.8346 5.06057 98.4401 4.60899 97.6153 4.60899C97.4287 4.6003 97.2423 4.63207 97.0691 4.70212C96.8959 4.77218 96.7398 4.87887 96.6117 5.01488C96.4835 5.15088 96.3863 5.31299 96.3266 5.49008C96.267 5.66718 96.2464 5.85508 96.2661 6.0409V9.34649H95.151V3.69605Z" fill="black"/>
<path d="M106.251 2.28927V3.72179H107.475V4.66108H106.251V7.56657C106.251 8.15845 106.495 8.41762 107.05 8.41762C107.192 8.41717 107.334 8.40858 107.475 8.39189V9.32076C107.275 9.35658 107.072 9.37564 106.869 9.37774C105.628 9.37774 105.135 8.94148 105.135 7.85208V4.66103H104.238V3.72174H105.135V2.28927H106.251Z" fill="black"/>
<path d="M108.998 1.49027H110.104V4.60409H110.192C110.34 4.27868 110.585 4.00689 110.893 3.82576C111.202 3.64463 111.558 3.56296 111.915 3.59188C112.188 3.577 112.462 3.62266 112.715 3.72561C112.969 3.82856 113.197 3.98626 113.383 4.18746C113.569 4.38866 113.708 4.6284 113.791 4.88957C113.873 5.15075 113.897 5.42692 113.861 5.69839V9.34649H112.744V5.97349C112.744 5.07096 112.324 4.61387 111.536 4.61387C111.345 4.59816 111.152 4.6245 110.971 4.69108C110.791 4.75765 110.627 4.86284 110.492 4.99929C110.356 5.13574 110.252 5.30015 110.187 5.48102C110.121 5.66188 110.096 5.85484 110.113 6.0464V9.34646H108.998L108.998 1.49027Z" fill="black"/>
<path d="M120.363 7.82084C120.211 8.33725 119.883 8.78395 119.436 9.08279C118.988 9.38163 118.45 9.51358 117.915 9.45555C117.542 9.46538 117.172 9.39408 116.83 9.2466C116.488 9.09912 116.183 8.87899 115.934 8.6015C115.686 8.32401 115.501 7.9958 115.392 7.63965C115.283 7.2835 115.253 6.90794 115.304 6.53905C115.255 6.16901 115.285 5.79265 115.394 5.43543C115.502 5.07821 115.686 4.74848 115.933 4.46856C116.18 4.18864 116.485 3.96507 116.826 3.81297C117.167 3.66087 117.536 3.58381 117.91 3.58699C119.482 3.58699 120.43 4.66113 120.43 6.43547V6.82458H116.44V6.88707C116.423 7.09443 116.449 7.30315 116.517 7.49984C116.585 7.69654 116.693 7.87687 116.835 8.02928C116.976 8.18168 117.148 8.3028 117.34 8.38487C117.531 8.46693 117.737 8.50812 117.945 8.50581C118.212 8.53784 118.482 8.4898 118.722 8.36783C118.961 8.24585 119.159 8.05543 119.289 7.8208L120.363 7.82084ZM116.44 5.99986H119.294C119.308 5.81021 119.283 5.61973 119.219 5.44064C119.155 5.26156 119.054 5.09782 118.923 4.95997C118.792 4.82212 118.634 4.71319 118.458 4.64019C118.282 4.56719 118.094 4.53173 117.903 4.53609C117.711 4.53367 117.519 4.56988 117.341 4.64259C117.162 4.7153 117 4.82304 116.863 4.95946C116.727 5.09587 116.619 5.25821 116.547 5.43689C116.474 5.61557 116.438 5.80699 116.44 5.99986Z" fill="black"/>
</svg>
